<svg width="77" height="16" viewBox="0 0 77 16" fill="none" xmlns="http://www.w3.org/2000/svg">
<path d="M5.94 14.98C4.98 14.9667 4.08667 14.8867 3.26 14.74C2.44667 14.5933 1.78667 14.3267 1.28 13.94C0.786667 13.5533 0.54 13.0133 0.54 12.32C0.54 11.6133 0.726667 11.0733 1.1 10.7C1.48667 10.3133 1.96667 10.12 2.54 10.12C3.26 10.12 3.89333 10.1667 4.44 10.26C5 10.3533 5.60667 10.4 6.26 10.4C6.82 10.4 7.19333 10.3133 7.38 10.14C7.58 9.96667 7.68 9.72667 7.68 9.42C7.68 8.76667 7.15333 8.44 6.1 8.44H4.96C4.50667 8.44 4.18 8.33333 3.98 8.12C3.78 7.89333 3.68 7.62667 3.68 7.32C3.68 7 3.78 6.73333 3.98 6.52C4.18 6.30667 4.50667 6.2 4.96 6.2H6.1C6.59333 6.2 6.92 6.10667 7.08 5.92C7.24 5.72 7.32 5.47333 7.32 5.18C7.32 4.94 7.23333 4.75333 7.06 4.62C6.88667 4.48667 6.58 4.42 6.14 4.42C5.60667 4.42 5.06667 4.48667 4.52 4.62C3.97333 4.75333 3.40667 4.82 2.82 4.82C2.19333 4.82 1.66 4.68667 1.22 4.42C0.793333 4.14 0.58 3.61333 0.58 2.84C0.58 2.30667 0.733333 1.88 1.04 1.56C1.36 1.22667 1.78667 0.973333 2.32 0.799999C2.85333 0.613333 3.44 0.486666 4.08 0.419999C4.73333 0.353333 5.4 0.319999 6.08 0.319999C7.04 0.319999 7.91333 0.44 8.7 0.68C9.48667 0.906666 10.1133 1.28 10.58 1.8C11.06 2.32 11.3 3.02667 11.3 3.92C11.3 4.89333 10.9867 5.68 10.36 6.28C9.74667 6.86667 8.93333 7.16 7.92 7.16V7.6C8.6 7.6 9.20667 7.71333 9.74 7.94C10.2867 8.15333 10.72 8.5 11.04 8.98C11.36 9.46 11.52 10.1 11.52 10.9C11.52 11.8067 11.2667 12.5667 10.76 13.18C10.2533 13.78 9.58 14.2333 8.74 14.54C7.9 14.8333 6.96667 14.98 5.94 14.98ZM17.9108 0.439999C19.4974 0.439999 20.7908 0.739999 21.7908 1.34C22.8041 1.92667 23.5508 2.76667 24.0308 3.86C24.5241 4.94 24.7708 6.22667 24.7708 7.72C24.7708 10.2267 24.2308 12.0667 23.1508 13.24C22.0708 14.4133 20.4174 15 18.1908 15H17.3108C16.6574 15 16.0508 14.9333 15.4908 14.8C14.9308 14.6667 14.4374 14.4267 14.0108 14.08C13.5841 13.72 13.2508 13.22 13.0108 12.58C12.7708 11.94 12.6508 11.1133 12.6508 10.1C12.6508 9.15333 12.7774 8.33333 13.0308 7.64C13.2974 6.94667 13.6108 6.39333 13.9708 5.98C14.3308 5.56667 14.6574 5.31333 14.9508 5.22L14.8508 4.84H14.5108C13.8974 4.84 13.4108 4.64667 13.0508 4.26C12.7041 3.86 12.5241 3.32667 12.5108 2.66C12.4974 1.99333 12.6708 1.46 13.0308 1.06C13.4041 0.646666 13.8974 0.439999 14.5108 0.439999H17.9108ZM16.4708 9.84C16.4708 10.12 16.5308 10.3133 16.6508 10.42C16.7841 10.5267 16.9774 10.58 17.2308 10.58H18.3108C18.9908 10.58 19.5174 10.4333 19.8908 10.14C20.2641 9.84667 20.5241 9.47333 20.6708 9.02C20.8308 8.55333 20.9108 8.06 20.9108 7.54C20.9108 7.02 20.8308 6.52 20.6708 6.04C20.5241 5.56 20.2641 5.16667 19.8908 4.86C19.5174 4.55333 18.9908 4.4 18.3108 4.4H17.2308C16.9774 4.4 16.7841 4.46 16.6508 4.58C16.5308 4.68667 16.4708 4.88667 16.4708 5.18V9.84ZM32.0734 15.06C31.3268 15.06 30.5734 14.9867 29.8134 14.84C29.0668 14.68 28.3734 14.4533 27.7334 14.16C27.1068 13.8533 26.6001 13.4867 26.2134 13.06C25.8268 12.62 25.6334 12.1133 25.6334 11.54C25.6334 10.8067 25.8668 10.22 26.3334 9.78C26.8001 9.34 27.3468 9.13333 27.9734 9.16C28.4668 9.17333 28.9601 9.28 29.4534 9.48C29.9468 9.66667 30.4468 9.85333 30.9534 10.04C31.4734 10.2267 31.9934 10.32 32.5134 10.32C33.0334 10.32 33.3934 10.2533 33.5934 10.12C33.7934 9.98667 33.8934 9.80667 33.8934 9.58C33.8934 9.31333 33.7534 9.09333 33.4734 8.92C33.1934 8.74667 32.8401 8.61333 32.4134 8.52L31.4334 8.28C30.4201 8.04 29.5134 7.77333 28.7134 7.48C27.9134 7.17333 27.2801 6.77333 26.8134 6.28C26.3601 5.77333 26.1334 5.1 26.1334 4.26C26.1334 3.34 26.3868 2.59333 26.8934 2.02C27.4001 1.43333 28.0868 1.00667 28.9534 0.739999C29.8201 0.473332 30.7868 0.339999 31.8534 0.339999C32.9468 0.339999 33.9068 0.453333 34.7334 0.68C35.5601 0.906666 36.2001 1.23333 36.6534 1.66C37.1201 2.08667 37.3534 2.60667 37.3534 3.22C37.3534 3.87333 37.1734 4.38667 36.8134 4.76C36.4668 5.12 36.0001 5.3 35.4134 5.3C35.0268 5.3 34.6201 5.23333 34.1934 5.1C33.7801 4.96667 33.3401 4.84 32.8734 4.72C32.4201 4.58667 31.9334 4.52 31.4134 4.52C30.9468 4.52 30.5934 4.59333 30.3534 4.74C30.1134 4.87333 29.9934 5.05333 29.9934 5.28C29.9934 5.56 30.1534 5.76667 30.4734 5.9C30.7934 6.03333 31.3201 6.19333 32.0534 6.38L33.1734 6.64C34.0934 6.86667 34.9001 7.14 35.5934 7.46C36.2868 7.78 36.8268 8.2 37.2134 8.72C37.6001 9.24 37.7934 9.92 37.7934 10.76C37.7934 11.7733 37.5534 12.6 37.0734 13.24C36.5934 13.8667 35.9268 14.3267 35.0734 14.62C34.2201 14.9133 33.2201 15.06 32.0734 15.06ZM44.6391 15.06C43.2124 15.06 42.0057 14.7467 41.0191 14.12C40.0324 13.4933 39.2857 12.6267 38.7791 11.52C38.2724 10.4133 38.0191 9.14 38.0191 7.7C38.0191 6.27333 38.2724 5.00667 38.7791 3.9C39.2857 2.78 40.0324 1.90667 41.0191 1.28C42.0057 0.639999 43.2124 0.319999 44.6391 0.319999C46.0657 0.319999 47.2657 0.639999 48.2391 1.28C49.2257 1.90667 49.9724 2.78 50.4791 3.9C50.9857 5.00667 51.2391 6.27333 51.2391 7.7C51.2391 9.14 50.9857 10.4133 50.4791 11.52C49.9724 12.6267 49.2257 13.4933 48.2391 14.12C47.2657 14.7467 46.0657 15.06 44.6391 15.06ZM40.5391 7.38C40.5391 7.79333 40.6391 8.18667 40.8391 8.56C41.0391 8.92 41.4324 9.21333 42.0191 9.44C42.6057 9.65333 43.4791 9.76 44.6391 9.76C45.7991 9.76 46.6657 9.65333 47.2391 9.44C47.8257 9.21333 48.2191 8.92 48.4191 8.56C48.6191 8.18667 48.7191 7.79333 48.7191 7.38C48.7191 6.95333 48.6191 6.57333 48.4191 6.24C48.2191 5.89333 47.8257 5.62 47.2391 5.42C46.6657 5.20667 45.7991 5.1 44.6391 5.1C43.4791 5.1 42.6057 5.20667 42.0191 5.42C41.4324 5.62 41.0391 5.89333 40.8391 6.24C40.6391 6.57333 40.5391 6.95333 40.5391 7.38ZM54.4202 15C53.7668 15 53.2468 14.82 52.8602 14.46C52.4868 14.1 52.3002 13.5733 52.3002 12.88V10.06C52.3002 8.64667 52.5135 7.57333 52.9402 6.84C53.3668 6.10667 53.9068 5.58 54.5602 5.26L54.4602 4.88H54.1202C53.5068 4.88 53.0202 4.68667 52.6602 4.3C52.3135 3.9 52.1335 3.36 52.1202 2.68C52.1068 2.01333 52.2802 1.48 52.6402 1.08C53.0135 0.68 53.5068 0.48 54.1202 0.48H61.1202C62.5468 0.48 63.2602 1.14667 63.2602 2.48C63.2602 3.08 63.0868 3.56 62.7402 3.92C62.3935 4.28 61.8535 4.46 61.1202 4.46H57.2202C56.7268 4.46 56.4802 4.74667 56.4802 5.32V6.76C57.1068 6.58667 57.7602 6.38667 58.4402 6.16C59.1202 5.93333 59.7735 5.82 60.4002 5.82C61.0668 5.82 61.5802 5.98667 61.9402 6.32C62.3135 6.64 62.5002 7.13333 62.5002 7.8C62.5002 8.45333 62.3135 8.94667 61.9402 9.28C61.5802 9.6 61.0668 9.76667 60.4002 9.78C59.7735 9.79333 59.1135 9.69333 58.4202 9.48C57.7402 9.25333 57.0868 9.05333 56.4602 8.88L56.4402 12.88C56.4402 13.5733 56.2535 14.1 55.8802 14.46C55.5202 14.82 55.0335 15 54.4202 15ZM65.9556 4.88C65.289 4.88 64.7423 4.68667 64.3156 4.3C63.9023 3.91333 63.6956 3.38 63.6956 2.7C63.6956 2.03333 63.8823 1.5 64.2556 1.1C64.6423 0.686666 65.209 0.48 65.9556 0.48H74.5756C75.3223 0.48 75.8823 0.686666 76.2556 1.1C76.6423 1.5 76.8356 2.03333 76.8356 2.7C76.8356 3.38 76.6223 3.91333 76.1956 4.3C75.7823 4.68667 75.2423 4.88 74.5756 4.88C74.1223 4.88 73.7556 4.83333 73.4756 4.74C73.209 4.63333 72.989 4.51333 72.8156 4.38C72.6423 4.23333 72.4756 4.11333 72.3156 4.02C72.1556 3.91333 71.9556 3.86 71.7156 3.86L71.5356 4.22C71.589 4.34 71.6823 4.51333 71.8156 4.74C71.949 4.95333 72.0756 5.26667 72.1956 5.68C72.3156 6.08 72.3756 6.62667 72.3756 7.32V13.1C72.3756 13.6467 72.169 14.1 71.7556 14.46C71.3556 14.82 70.8623 15 70.2756 15C69.6756 15 69.169 14.82 68.7556 14.46C68.3556 14.1 68.1556 13.6467 68.1556 13.1V7.32C68.1556 6.62667 68.2156 6.08 68.3356 5.68C68.4556 5.26667 68.5823 4.95333 68.7156 4.74C68.8623 4.51333 68.9623 4.34 69.0156 4.22L68.8156 3.86C68.5756 3.86 68.3756 3.91333 68.2156 4.02C68.0556 4.11333 67.889 4.23333 67.7156 4.38C67.5423 4.51333 67.3223 4.63333 67.0556 4.74C66.789 4.83333 66.4223 4.88 65.9556 4.88Z" fill="white"/>
</svg>
